<?xml version="1.0" encoding="utf-8"?>
<!-- Generator: Adobe Illustrator 19.2.0, SVG Export Plug-In . SVG Version: 6.00 Build 0)  -->
<svg version="1.1" id="Layer_1" xmlns="http://www.w3.org/2000/svg" xmlns:xlink="http://www.w3.org/1999/xlink" x="0px" y="0px"
	 viewBox="0 0 1280 800" style="enable-background:new 0 0 1280 800;" xml:space="preserve">
<style type="text/css">
	.st0{fill:#54D9FB;}
</style>
<g>
	<path class="st0" d="M301.8,227.3c-100.9-97.9-209.3-79.6-235.4-15.8C131.9,130.8,239.3,193.3,301.8,227.3z"/>
	<path class="st0" d="M131.5,221.4c28-8.2,66.8-7.7,100.8,6.8c-22-20.4-65.7-31.3-105.2-20.3c-67.4,18.9-38.2,90.5,4,70.6
		C93.1,282.6,83.6,235.4,131.5,221.4z"/>
	<path class="st0" d="M1280,311v-7.5v-3.7v-63.2l-9.6,4.7c-117.8,55.8-254.3,57-371.5,41.5c-87.1-14-293.1-70.4-502.3-28.8
		c-58.6-12.1-74.6-51.7-132.8-67.6c7.3,6.7,44.1,36.7,59.4,47.9c18.4,13.1,37.4,23.1,58.6,22.9c-5.3,1.2-10.7,2.4-16,3.7
		c-0.1,0-0.1,0-0.2,0.1c-2.1,0.7-4.2,1.4-6.3,2.1c-48-5.6-56.8-34.5-114.3-60.2c-43.8-19.4-95.1-29.9-130.8,1
		c41.1-20.2,77.9-8.9,120,9.6c48.1,22.9,72.1,49.2,106.1,55.7c-11.2,3.4-22.5,6.6-33.9,9.5c-70.2,18.1-141.4,25.1-206.2,2.2
		C71.9,270.5,35,252,0,231.1v36.8v5.9v26V311H1280z"/>
</g>
</svg>
