<svg id="Layer_1" data-name="Layer 1" xmlns="http://www.w3.org/2000/svg" viewBox="0 0 1280 131.01"><defs><style>.cls-1{fill:#54d9fb;}</style></defs><title>background-svg</title><path class="cls-1" d="M977.91,378c100.91,84.26,209.35,68.47,235.41,13.63C1147.79,461,1040.4,407.25,977.91,378Z" transform="translate(0 -306)"/><path class="cls-1" d="M1148.19,383.06c-28,7.07-66.77,6.64-100.81-5.88,22,17.56,65.71,27,105.17,17.5,67.41-16.29,38.21-77.83-4-60.78C1186.6,330.4,1196.07,371.06,1148.19,383.06Z" transform="translate(0 -306)"/><path class="cls-1" d="M0,306v64.08l9.47-4c117.8-48,254.24-49,371.38-35.67,87.06,12,293.09,60.58,502.25,24.75,58.57,10.43,74.58,44.49,132.8,58.17-7.32-5.73-44.07-31.62-59.39-41.19-18.4-11.3-37.45-19.92-58.59-19.68,5.34-1,10.69-2.08,16-3.21l0.21,0,6.33-1.79c48,4.8,56.82,29.71,114.28,51.8,43.81,16.72,95.14,25.72,130.83-.83-41.12,17.39-77.85,7.64-120-8.23-48.08-19.72-72.09-42.34-106.06-47.92,11.24-2.94,22.54-5.71,33.87-8.22,70.22-15.56,141.56-21.57,206.4-1.93,28.08,8.78,64.51,24.74,100.15,42.69V306H0Z" transform="translate(0 -306)"/></svg>